<svg width="527" height="117" viewBox="0 0 527 117" fill="none" xmlns="http://www.w3.org/2000/svg">
<path d="M162.066 55.396C161.918 52.3373 160.413 49.7227 157.552 47.552C155.727 46.2693 153.334 45.702 150.374 45.85C147.513 46.0967 145.145 46.9107 143.27 48.292C141.247 49.8213 140.088 51.77 139.792 54.138C139.397 56.95 140.458 59.4413 142.974 61.612C143.665 62.3027 144.602 62.8453 145.786 63.24C146.477 63.4867 147.611 63.8073 149.19 64.202C149.338 64.202 149.486 64.2267 149.634 64.276C151.558 64.72 153.063 65.1393 154.148 65.534C155.924 66.3233 157.33 67.3593 158.366 68.642L156.294 70.27C155.455 69.3327 154.419 68.5927 153.186 68.05C152.545 67.8033 151.188 67.4087 149.116 66.866C149.017 66.866 148.919 66.8413 148.82 66.792H148.672C146.847 66.3973 145.589 66.052 144.898 65.756C143.418 65.2133 142.185 64.498 141.198 63.61C137.942 60.798 136.585 57.5173 137.128 53.768C137.572 50.66 139.077 48.1193 141.642 46.146C144.059 44.37 146.896 43.408 150.152 43.26C153.852 43.0133 156.837 43.7287 159.106 45.406C162.707 48.07 164.582 51.3507 164.73 55.248L162.066 55.396ZM138.09 70.344C138.189 73.3533 139.693 75.968 142.604 78.188C144.331 79.52 146.699 80.112 149.708 79.964C152.619 79.816 154.987 79.0267 156.812 77.596C158.835 76.116 160.043 74.2167 160.438 71.898C160.931 69.1353 159.871 66.57 157.256 64.202C156.516 63.5607 155.554 62.9933 154.37 62.5C153.63 62.204 152.471 61.8833 150.892 61.538C150.793 61.538 150.67 61.5133 150.522 61.464C148.647 61.0693 147.143 60.65 146.008 60.206C144.38 59.5153 142.999 58.504 141.864 57.172L144.01 55.47C144.651 56.358 145.663 57.1227 147.044 57.764C147.784 58.06 149.141 58.43 151.114 58.874C151.262 58.9233 151.361 58.948 151.41 58.948C152.742 59.244 154.049 59.5893 155.332 59.984C156.812 60.6253 158.045 61.39 159.032 62.278C162.288 65.238 163.645 68.568 163.102 72.268C162.609 75.228 161.055 77.7193 158.44 79.742C156.22 81.4193 153.359 82.3813 149.856 82.628C146.304 82.8747 143.344 82.11 140.976 80.334C137.424 77.5713 135.574 74.2907 135.426 70.492L138.09 70.344ZM219.589 50.734L221.957 53.25C222.154 53.4967 222.401 53.7927 222.697 54.138C223.437 54.9273 224.325 55.914 225.361 57.098C227.778 59.8113 230.467 62.796 233.427 66.052C236.338 69.308 239.002 72.2927 241.419 75.006C242.455 76.19 243.343 77.1767 244.083 77.966C244.379 78.3113 244.626 78.5827 244.823 78.78L246.969 81H243.195L242.825 80.556C242.628 80.3587 242.381 80.0873 242.085 79.742C241.345 78.9527 240.457 77.966 239.421 76.782C237.004 74.0687 234.34 71.084 231.429 67.828C228.469 64.572 225.78 61.5873 223.363 58.874L222.253 57.616V58.652V67.754V76.856V79.89V80.704V81H219.589V80.704V79.89V76.856V67.754V58.652V55.692V54.804V54.508V50.734ZM246.895 44V44.222V45.036V47.996V56.802C246.895 58.4793 246.87 60.058 246.821 61.538C246.821 62.9687 246.821 64.3253 246.821 65.608V68.494V69.308V74.71V76.116L242.825 71.454C242.628 71.2567 242.381 70.9853 242.085 70.64L239.495 67.68C237.028 64.9667 234.34 61.982 231.429 58.726C228.518 55.4207 225.83 52.4113 223.363 49.698C222.327 48.5633 221.439 47.5767 220.699 46.738C220.403 46.442 220.156 46.1707 219.959 45.924L219.589 45.48V41.632L221.957 44.148C222.154 44.3947 222.401 44.666 222.697 44.962C223.437 45.8007 224.325 46.7873 225.361 47.922C227.778 50.6353 230.467 53.6447 233.427 56.95C236.338 60.206 239.002 63.1907 241.419 65.904C242.455 67.0387 243.343 68.0253 244.083 68.864L244.157 68.938V68.494V65.608C244.157 64.3253 244.157 62.9687 244.157 61.538C244.206 60.058 244.231 58.4793 244.231 56.802V47.996V45.036V44.222V44H246.895ZM260.925 44H261.221H261.887H264.403H272.099H279.795H282.311H283.051H283.273V46.664H283.051H282.311H279.795H272.099H264.403H263.589V47.7V55.692V60.946H264.551H272.173H279.721H282.237H282.903H283.199V63.61H282.903H282.237H279.721H272.173H264.551H263.589V63.684V65.756V65.904V67.68V73.082V78.336H264.403H272.025H279.647H282.163H282.903H283.125V81H282.903H282.163H279.647H272.025H264.403H261.887H261.221H260.925V78.336V73.082V67.68V67.384V67.088V66.348V63.684V55.692V47.7V46.664V45.036V44.296V44ZM305.265 46.59V49.846V59.466C309.902 59.4167 313.232 58.6027 315.255 57.024C316.685 55.9387 317.401 54.508 317.401 52.732C317.401 52.0413 317.203 51.2273 316.809 50.29C316.266 49.2047 315.526 48.4153 314.589 47.922C313.503 47.33 311.801 46.9353 309.483 46.738C307.904 46.6393 306.498 46.59 305.265 46.59ZM317.031 81C316.389 79.4707 315.723 77.892 315.033 76.264C312.665 70.788 310.494 66.0027 308.521 61.908C307.583 62.056 306.498 62.13 305.265 62.13V62.574V75.302V79.446V80.63V81.074H302.601V80.63V79.446V75.302V62.574V49.846V46.59C302.354 46.59 301.935 46.6147 301.343 46.664C300.8 46.664 300.381 46.664 300.085 46.664V49.772V62.5C300.085 67.1373 300.109 71.38 300.159 75.228V79.372V80.556V81H297.495V80.556V79.372V75.228C297.445 71.38 297.421 67.1373 297.421 62.5V49.772V45.554V44.444V44H299.789C304.525 43.9507 307.805 43.9753 309.631 44.074C312.393 44.2713 314.465 44.7647 315.847 45.554C317.327 46.442 318.437 47.626 319.177 49.106C319.769 50.3393 320.065 51.5727 320.065 52.806C320.065 55.47 319.004 57.5913 316.883 59.17C315.6 60.1567 313.849 60.9213 311.629 61.464L315.329 69.9L317.623 75.228L319.473 79.446C319.67 79.89 319.818 80.2847 319.917 80.63L320.139 81H317.031ZM358.846 60.946H359.438H361.14C362.62 60.9953 364.273 61.02 366.098 61.02H371.13H372.758H373.424V62.648C373.523 68.6173 371.895 73.3533 368.54 76.856C365.185 80.3587 360.523 82.11 354.554 82.11C348.881 82.1593 344.169 80.3833 340.42 76.782C336.671 73.1313 334.747 68.4693 334.648 62.796C334.549 57.3693 336.325 52.8553 339.976 49.254C343.627 45.6033 348.264 43.7533 353.888 43.704H353.962L364.692 43.63H364.766L364.692 46.368H362.768H353.962C349.029 46.4173 344.983 47.996 341.826 51.104C338.718 54.212 337.213 58.1093 337.312 62.796C337.411 67.7293 339.063 71.75 342.27 74.858C345.477 77.966 349.571 79.4953 354.554 79.446C359.882 79.446 363.977 77.892 366.838 74.784C369.403 71.9227 370.711 68.2227 370.76 63.684H366.098C364.273 63.684 362.595 63.6593 361.066 63.61H359.438H358.846V60.946ZM436.874 44V44.296V44.888C436.874 45.4307 436.85 46.0473 436.8 46.738V48.588V49.254V49.476H434.136V49.18V48.588V46.738C434.186 46.0473 434.21 45.4307 434.21 44.888V44.296V44H436.874ZM458.135 59.688V59.56C458.135 59.5173 458.135 59.4747 458.135 59.432C458.178 59.3467 458.199 59.2827 458.199 59.24C458.199 59.1547 458.199 58.984 458.199 58.728C458.242 58.472 458.263 58.28 458.263 58.152C458.476 56.9573 458.754 55.8693 459.095 54.888C459.564 53.6507 460.183 52.6053 460.951 51.752C462.615 50.0453 464.77 49.0853 467.415 48.872C469.634 48.6587 471.767 49.0853 473.815 50.152C476.076 51.3467 477.506 53.2453 478.103 55.848C478.743 58.4507 478.316 60.8827 476.823 63.144C476.354 63.9547 475.479 64.8507 474.199 65.832C473.516 66.344 472.364 67.0693 470.743 68.008C470.615 68.0933 470.146 68.3707 469.335 68.84C468.524 69.3093 468.034 69.5867 467.863 69.672C465.175 71.208 463.212 72.5947 461.975 73.832C460.567 75.368 459.628 76.968 459.159 78.632H461.079H468.375C471.02 78.6747 473.452 78.696 475.671 78.696H478.039H478.743H478.935V81H478.743H478.039H475.671C473.452 81 471.02 80.9787 468.375 80.936H461.079H458.711H458.007H457.815L456.663 79.656C457.047 76.8827 458.284 74.408 460.375 72.232C461.868 70.7387 463.98 69.2027 466.711 67.624C466.839 67.5387 467.308 67.2827 468.119 66.856C468.972 66.3867 469.484 66.1093 469.655 66.024C472.343 64.488 474.092 63.1013 474.903 61.864C476.012 60.1573 476.332 58.344 475.863 56.424C475.436 54.4613 474.391 53.0533 472.727 52.2C471.148 51.3893 469.42 51.048 467.543 51.176C465.495 51.304 463.852 52.0293 462.615 53.352C462.103 53.864 461.634 54.6533 461.207 55.72C460.908 56.4453 460.695 57.3627 460.567 58.472C460.524 58.6853 460.503 58.984 460.503 59.368C460.46 59.4533 460.439 59.5387 460.439 59.624V59.688H458.135ZM493.649 58.28C493.734 55.336 494.886 52.9467 497.105 51.112C499.025 49.5333 501.158 48.7013 503.505 48.616C506.278 48.5307 508.625 49.256 510.545 50.792C512.465 52.2853 513.446 54.248 513.489 56.68C513.574 60.0933 512.166 62.5253 509.265 63.976C510.502 64.4453 511.548 65.064 512.401 65.832C513.937 67.24 514.684 69.096 514.641 71.4C514.598 74.216 513.446 76.584 511.185 78.504C508.924 80.424 506.193 81.3413 502.993 81.256C500.433 81.1707 498.214 80.296 496.337 78.632C494.118 76.7547 493.009 74.2587 493.009 71.144H495.313C495.313 73.4907 496.166 75.4107 497.873 76.904C499.366 78.184 501.073 78.8667 502.993 78.952C505.596 78.9947 507.793 78.2907 509.585 76.84C511.42 75.3467 512.337 73.512 512.337 71.336C512.38 69.7573 511.889 68.4773 510.865 67.496C509.926 66.6853 508.774 66.1307 507.409 65.832C506.982 65.7467 506.3 65.6613 505.361 65.576C505.276 65.576 504.422 65.512 502.801 65.384H501.905H501.649H501.585H501.521L501.457 63.08H501.585H501.777C501.948 63.0373 502.246 63.016 502.673 63.016C503.398 62.9733 504.23 62.8667 505.169 62.696C505.937 62.6107 506.577 62.4827 507.089 62.312C509.905 61.544 511.27 59.688 511.185 56.744C511.142 54.9947 510.396 53.5867 508.945 52.52C507.537 51.4107 505.745 50.8773 503.569 50.92C501.777 50.92 500.113 51.56 498.577 52.84C496.87 54.3333 495.996 56.168 495.953 58.344L493.649 58.28Z" fill="white"/>
<path d="M178.909 44H182.091C182.732 45.036 183.201 45.776 183.497 46.22C184.187 47.3053 185.026 48.6127 186.013 50.142L192.229 59.984L198.519 50.216C199.456 48.6373 200.295 47.3053 201.035 46.22L202.441 44H205.549C204.611 45.48 204.069 46.3187 203.921 46.516L203.255 47.626C202.564 48.7113 201.725 50.0433 200.739 51.622C199.456 53.6447 197.088 57.32 193.635 62.648V64.794C193.684 66.7673 193.709 68.9627 193.709 71.38V78.04V80.26V80.852V81.074H191.045V80.852V80.26V78.04V71.38C191.045 68.9627 191.02 66.7673 190.971 64.794V63.018C190.329 61.982 189.096 60.0087 187.271 57.098C185.445 54.1873 184.286 52.362 183.793 51.622C182.806 50.0433 181.967 48.7113 181.277 47.626L180.537 46.516L178.909 44Z" fill="#EA1B1B"/>
<path d="M387.684 44H390.866C391.507 45.036 391.976 45.776 392.272 46.22C392.963 47.3053 393.801 48.6127 394.788 50.142L401.004 59.984L407.294 50.216C408.231 48.6373 409.07 47.3053 409.81 46.22L411.216 44H414.324C413.387 45.48 412.844 46.3187 412.696 46.516L412.03 47.626C411.339 48.7113 410.501 50.0433 409.514 51.622C408.231 53.6447 405.863 57.32 402.41 62.648V64.794C402.459 66.7673 402.484 68.9627 402.484 71.38V78.04V80.26V80.852V81.074H399.82V80.852V80.26V78.04V71.38C399.82 68.9627 399.795 66.7673 399.746 64.794V63.018C399.105 61.982 397.871 60.0087 396.046 57.098C394.221 54.1873 393.061 52.362 392.568 51.622C391.581 50.0433 390.743 48.7113 390.052 47.626L389.312 46.516L387.684 44Z" fill="#0938DF"/>
<path fill-rule="evenodd" clip-rule="evenodd" d="M37.9038 92.1655C25.5178 91.5065 20.8598 87.2617 13.8606 77.4724C7.38194 65.248 5.77333 58.6677 6.51412 47.4185C9.38377 30.6544 12.9894 24.7055 20.5393 16.0288C33.8414 3.56447 42.4145 0.644087 58.6077 0C82.5588 0.439591 88.8762 5.59794 99.2299 14.052C99.489 14.2636 99.7508 14.4773 100.015 14.693C90.0279 8.7061 84.0223 5.82295 69.9614 5.34291C58.8697 6.14679 53.3807 8.05016 44.5825 16.0288C39.457 22.2388 37.7616 26.2112 36.5681 34.0611V34.758C36.2366 34.7388 35.9026 34.729 35.5663 34.729C26.1605 34.729 18.5357 42.3539 18.5357 51.7596C18.5357 61.1653 26.1605 68.7902 35.5663 68.7902C35.9026 68.7902 36.2366 68.7804 36.5681 68.7612V69.458L37.9038 92.1655ZM49.9254 51.7596C49.9254 59.6899 43.4966 66.1187 35.5663 66.1187C27.6359 66.1187 21.2072 59.6899 21.2072 51.7596C21.2072 43.8293 27.6359 37.4005 35.5663 37.4005C43.4966 37.4005 49.9254 43.8293 49.9254 51.7596ZM43.194 23.3212C49.9577 12.924 55.9628 11.0125 67.9401 9.84569C81.7661 10.3472 88.2692 12.2443 97.6409 18.5104C110.724 29.3776 114.073 35.4746 117.813 46.3514C121.956 64.1035 120.199 72.9882 112.66 87.334C100.303 107.856 92.6775 110.748 80.1793 115.488L80.1774 115.489C79.8651 115.607 79.5498 115.727 79.2313 115.848C89.4099 110.192 94.9096 106.432 102.356 94.4951C107.205 84.4875 108.302 78.7822 105.791 67.1734C102.976 59.6296 100.383 56.1751 94.1817 51.2166L93.5782 50.8681C93.7606 50.5907 93.9361 50.3063 94.1042 50.015C98.8071 41.8694 96.0162 31.4537 87.8706 26.7508C79.725 22.048 69.3093 24.8389 64.6064 32.9845C64.4383 33.2757 64.2797 33.5698 64.1306 33.8665L63.5271 33.5181L43.194 23.3212ZM72.1758 53.9351C65.3079 49.9699 62.9548 41.188 66.92 34.3202C70.8851 27.4523 79.667 25.0992 86.5349 29.0644C93.4027 33.0295 95.7558 41.8114 91.7907 48.6793C87.8255 55.5472 79.0436 57.9003 72.1758 53.9351ZM99.0365 90.5576C104.015 79.6015 105.362 73.4452 99.7395 62.3891L80.7421 74.8996L80.1386 75.248C80.321 75.5255 80.4965 75.8099 80.6646 76.1011C85.3675 84.2467 82.5766 94.6625 74.431 99.3653C66.2854 104.068 55.8697 101.277 51.1668 93.1317C50.9986 92.8405 50.8401 92.5463 50.691 92.2496L50.0875 92.5981C42.6926 95.4894 38.4046 96.0074 30.4638 94.6736C19.155 91.0434 14.7621 87.2415 8.52013 78.0377C1.90538 65.6206 1.39948 58.978 1.5906 47.3352C1.53605 47.6722 1.48185 48.0057 1.42816 48.3359C-0.716436 61.5295 -2.02499 69.5797 9.5699 90.5418C18.2243 104.243 25.0399 110.208 42.4854 115.496C53.7746 117.696 60.7294 117.844 76.6823 111.947C86.7948 106.964 91.6892 102.281 99.0365 90.5576ZM78.3511 77.4369C74.3859 70.569 65.604 68.2159 58.7361 72.1811C51.8683 76.1462 49.5152 84.9281 53.4803 91.796C57.4455 98.6638 66.2274 101.017 73.0953 97.0518C79.9631 93.0866 82.3162 84.3047 78.3511 77.4369Z" fill="white"/>
</svg>
