<svg width="90" height="88" viewBox="0 0 90 88" fill="none" xmlns="http://www.w3.org/2000/svg">
<path fill-rule="evenodd" clip-rule="evenodd" d="M28.3761 69C19.1032 68.5067 15.616 65.3288 10.3761 58C5.52577 48.8482 4.32147 43.9217 4.87607 35.5C7.02444 22.9495 9.72377 18.4958 15.3761 12C25.3347 2.66855 31.753 0.482198 43.8761 0C61.8072 0.329101 66.5367 4.19092 74.288 10.5201C74.4821 10.6785 74.678 10.8385 74.8761 11C67.3989 6.51785 62.9028 4.35937 52.3761 3.99998C44.0723 4.60182 39.9629 6.02678 33.3761 12C29.5389 16.6491 28.2696 19.6231 27.3761 25.5V26.0217C27.1279 26.0073 26.8778 26 26.6261 26C19.5844 26 13.8761 31.7084 13.8761 38.75C13.8761 45.7916 19.5844 51.5 26.6261 51.5C26.8778 51.5 27.1279 51.4927 27.3761 51.4783V52L28.3761 69ZM37.3761 38.75C37.3761 44.687 32.5631 49.5 26.6261 49.5C20.689 49.5 15.8761 44.687 15.8761 38.75C15.8761 32.8129 20.689 28 26.6261 28C32.5631 28 37.3761 32.8129 37.3761 38.75ZM32.3369 17.4595C37.4006 9.67562 41.8962 8.24455 50.8632 7.37101C61.214 7.74645 66.0826 9.16671 73.0987 13.8579C82.8936 21.9936 85.4009 26.5582 88.2003 34.7011C91.3023 47.9913 89.9866 54.6429 84.3426 65.3829C75.0921 80.7471 69.3829 82.9121 60.026 86.4604C59.7918 86.5492 59.5553 86.6389 59.3163 86.7297C66.9366 82.4953 71.0539 79.6808 76.6285 70.7441C80.2592 63.2519 81.0799 58.9806 79.2003 50.2896C77.0927 44.6419 75.1518 42.0557 70.509 38.3434L70.0572 38.0826C70.1937 37.8749 70.3251 37.662 70.451 37.4439C73.9718 31.3457 71.8824 23.5479 65.7842 20.0271C59.6859 16.5063 51.8882 18.5957 48.3673 24.6939C48.2415 24.912 48.1227 25.1322 48.0111 25.3543L47.5593 25.0934L32.3369 17.4595ZM54.0342 40.3787C48.8925 37.4102 47.1309 30.8356 50.0994 25.6939C53.0679 20.5523 59.6425 18.7906 64.7842 21.7592C69.9258 24.7277 71.6875 31.3023 68.7189 36.4439C65.7504 41.5856 59.1758 43.3472 54.0342 40.3787ZM74.144 67.7962C77.871 59.5939 78.8795 54.985 74.6703 46.7078L60.4478 56.0738L59.996 56.3346C60.1326 56.5424 60.264 56.7553 60.3898 56.9733C63.9107 63.0716 61.8212 70.8693 55.723 74.3901C49.6248 77.911 41.827 75.8216 38.3062 69.7233C38.1803 69.5053 38.0616 69.2851 37.95 69.063L37.4982 69.3238C31.9619 71.4884 28.7517 71.8762 22.8068 70.8776C14.3405 68.1599 11.0517 65.3136 6.37863 58.4232C1.42647 49.127 1.04773 44.154 1.19081 35.4376C1.14997 35.6899 1.10939 35.9396 1.0692 36.1868C-0.536361 46.0642 -1.51601 52.091 7.16454 67.7844C13.6437 78.0422 18.7462 82.5074 31.8068 86.4661C40.2585 88.1132 45.4652 88.224 57.4084 83.8094C64.9792 80.0788 68.6434 76.5726 74.144 67.7962ZM58.6578 57.9733C55.6893 52.8317 49.1147 51.07 43.973 54.0386C38.8314 57.0071 37.0697 63.5817 40.0382 68.7233C43.0068 73.865 49.5814 75.6266 54.723 72.6581C59.8647 69.6896 61.6263 63.115 58.6578 57.9733Z" fill="#BE00D7"/>
</svg>
